<svg width="51" height="51" viewBox="0 0 51 51" fill="none" xmlns="http://www.w3.org/2000/svg">
<path d="M25.5 0.083374C20.4731 0.083374 15.559 1.57404 11.3793 4.36685C7.19951 7.15967 3.94179 11.1292 2.01806 15.7735C0.0943333 20.4178 -0.409002 25.5282 0.571706 30.4586C1.55241 35.3889 3.97312 39.9178 7.5277 43.4723C11.0823 47.0269 15.6111 49.4476 20.5415 50.4283C25.4718 51.409 30.5822 50.9057 35.2265 48.982C39.8708 47.0583 43.8404 43.8005 46.6332 39.6208C49.426 35.441 50.9167 30.527 50.9167 25.5C50.9167 22.1623 50.2592 18.8572 48.9819 15.7735C47.7046 12.6898 45.8325 9.8879 43.4723 7.52774C41.1121 5.16759 38.3102 3.29541 35.2265 2.0181C32.1428 0.740796 28.8378 0.083374 25.5 0.083374V0.083374ZM25.5 45.8334C21.4784 45.8334 17.5472 44.6408 14.2034 42.4066C10.8596 40.1723 8.25343 36.9967 6.71445 33.2813C5.17547 29.5658 4.7728 25.4775 5.55737 21.5332C6.34193 17.5889 8.27849 13.9659 11.1222 11.1222C13.9658 8.27853 17.5889 6.34197 21.5332 5.55741C25.4774 4.77284 29.5658 5.17551 33.2812 6.71449C36.9967 8.25347 40.1723 10.8596 42.4065 14.2034C44.6408 17.5472 45.8333 21.4785 45.8333 25.5C45.8333 30.8928 43.6911 36.0646 39.8778 39.8779C36.0646 43.6911 30.8927 45.8334 25.5 45.8334V45.8334Z" fill="#B4A8A6"/>
<path d="M32.3879 18.6122C32.1516 18.3739 31.8705 18.1849 31.5608 18.0558C31.2511 17.9268 30.9189 17.8604 30.5833 17.8604C30.2478 17.8604 29.9156 17.9268 29.6059 18.0558C29.2961 18.1849 29.015 18.3739 28.7787 18.6122L25.5 21.9163L22.2212 18.6122C21.7426 18.1336 21.0935 17.8647 20.4167 17.8647C19.7398 17.8647 19.0907 18.1336 18.6121 18.6122C18.1335 19.0908 17.8646 19.7399 17.8646 20.4168C17.8646 21.0936 18.1335 21.7427 18.6121 22.2213L21.9162 25.5001L18.6121 28.7788C18.3739 29.0151 18.1848 29.2962 18.0557 29.606C17.9267 29.9157 17.8603 30.2479 17.8603 30.5834C17.8603 30.919 17.9267 31.2512 18.0557 31.5609C18.1848 31.8706 18.3739 32.1517 18.6121 32.388C18.8484 32.6262 19.1295 32.8153 19.4392 32.9444C19.7489 33.0734 20.0811 33.1398 20.4167 33.1398C20.7522 33.1398 21.0844 33.0734 21.3941 32.9444C21.7039 32.8153 21.985 32.6262 22.2212 32.388L25.5 29.0838L28.7787 32.388C29.015 32.6262 29.2961 32.8153 29.6059 32.9444C29.9156 33.0734 30.2478 33.1398 30.5833 33.1398C30.9189 33.1398 31.2511 33.0734 31.5608 32.9444C31.8705 32.8153 32.1516 32.6262 32.3879 32.388C32.6261 32.1517 32.8152 31.8706 32.9443 31.5609C33.0733 31.2512 33.1397 30.919 33.1397 30.5834C33.1397 30.2479 33.0733 29.9157 32.9443 29.606C32.8152 29.2962 32.6261 29.0151 32.3879 28.7788L29.0837 25.5001L32.3879 22.2213C32.6261 21.9851 32.8152 21.7039 32.9443 21.3942C33.0733 21.0845 33.1397 20.7523 33.1397 20.4168C33.1397 20.0812 33.0733 19.749 32.9443 19.4393C32.8152 19.1296 32.6261 18.8485 32.3879 18.6122V18.6122Z" fill="#B4A8A6"/>
</svg>
