<svg width="216" height="179" viewBox="0 0 216 179" fill="none" xmlns="http://www.w3.org/2000/svg">
<path id="&#227;&#131;&#139;&#227;&#131;&#163;&#227;&#130;&#134;&#227;&#129;&#191; &#227;&#129;&#174; &#231;&#140;&#171;&#227;&#130;&#171;&#227;&#131;&#149;&#227;&#130;&#167;" d="M7.79 8.195V13.145C9.495 13.09 11.31 12.98 13.235 12.98H36.775C38.59 12.98 40.68 13.035 42.22 13.145V8.195C40.68 8.36 38.755 8.415 36.775 8.415H13.235C11.42 8.415 9.55 8.305 7.79 8.195ZM3.06 35.42V40.7C4.93 40.59 6.855 40.425 8.835 40.425H41.78C43.265 40.425 45.135 40.535 46.785 40.7V35.42C45.19 35.585 43.43 35.695 41.78 35.695H8.835C6.855 35.695 4.93 35.53 3.06 35.42ZM74.175 10.34L69.445 11.495C69.94 12.32 70.38 13.42 70.765 14.795C71.095 15.84 71.755 18.205 72.58 21.12C69.225 21.725 66.64 22.22 65.87 22.33C64.22 22.605 62.845 22.825 61.305 22.935L62.405 27.115C63.89 26.785 68.4 25.905 73.57 24.86C75.715 32.725 78.355 42.46 79.07 44.935C79.455 46.31 79.73 47.74 79.895 48.95L84.57 47.74C84.24 46.75 83.69 45.045 83.36 44C82.645 41.58 79.95 31.9 77.75 23.98C85.395 22.44 93.15 20.9 94.415 20.68C92.545 23.98 88.42 29.04 84.955 32.01L88.86 33.935C92.6 30.25 98.265 22.55 100.575 17.875L97.825 15.95C97.275 16.225 96.395 16.445 95.735 16.61C93.865 17.05 84.515 18.865 76.76 20.35C75.935 17.435 75.275 15.07 74.945 13.86C74.615 12.485 74.34 11.275 74.175 10.34ZM140.45 0.384998L135.885 0.495C136.215 1.32 136.545 2.75 136.765 3.905C136.985 4.95 137.205 6.435 137.48 8.25C129.45 9.735 122.355 15.565 119.22 23.705C118.945 19.36 120.045 11.055 120.76 7.48C120.98 6.545 121.2 5.665 121.475 4.895L116.745 4.51C116.8 5.225 116.8 6.05 116.69 7.04C116.36 10.065 115.26 17.71 115.26 23.87C115.26 29.095 116.03 34.65 117.02 38.115L120.87 37.51C120.54 36.08 120.21 33.55 120.155 32.34C120.1 31.185 120.265 29.92 120.485 28.93C122.19 21.945 128.35 13.585 137.865 11.935C138.085 14.52 138.25 17.49 138.25 20.515C138.25 25.3 137.755 29.755 136.49 33.605C132.86 32.395 130.275 29.645 128.405 25.74L125.765 28.82C127.8 32.89 131.045 35.805 134.895 37.29C133.19 40.535 130.715 43.175 127.195 45.045L131.265 47.52C134.95 45.1 137.48 41.965 139.185 38.335C139.79 38.39 140.395 38.445 141 38.445C152.33 38.445 157.885 31.515 157.885 22.495C157.885 14.3 151.78 7.865 141.55 7.865C141.22 4.785 140.78 2.145 140.45 0.384998ZM142.32 20.515C142.32 17.49 142.155 14.41 141.935 11.605C149.91 11.825 153.705 16.775 153.705 22.66C153.705 29.92 148.7 34.32 141 34.32H140.67C141.88 30.14 142.32 25.52 142.32 20.515ZM175.265 3.685L175.485 8.14C176.805 8.03 178.345 7.865 179.555 7.81C182.085 7.645 188.795 7.37 190.995 7.26C189.29 10.67 187.2 15.455 185.275 19.8C174.44 20.075 166.96 26.29 166.96 34.375C166.96 38.995 170.04 41.91 174.11 41.91C176.97 41.91 179.06 40.92 181.04 38.115C183.13 35.035 185.825 28.545 187.97 23.705C193.69 24.2 199.08 26.18 203.7 28.765C201.94 34.705 197.98 40.59 189.29 44.275L192.92 47.3C200.895 43.34 205.13 38.115 207.385 30.965C209.53 32.395 211.455 33.88 213.105 35.31L215.14 30.58C213.38 29.315 211.125 27.83 208.485 26.345C209.09 23.155 209.475 19.635 209.64 15.73L205.185 15.235C205.295 16.775 205.24 18.645 205.185 20.295C205.075 21.615 204.965 22.99 204.745 24.365C200.29 22.33 195.175 20.57 189.62 19.965C191.93 14.85 194.35 9.24 195.89 6.765C196.33 6.105 196.825 5.555 197.32 4.95L194.57 2.695C193.855 2.97 192.865 3.19 191.82 3.3C189.51 3.465 182.305 3.85 179.39 3.85C178.29 3.85 176.695 3.795 175.265 3.685ZM170.975 33.825C170.975 29.095 175.54 24.255 183.57 23.65C181.645 27.94 179.555 33.055 177.575 35.64C176.42 37.07 175.54 37.565 174.275 37.565C172.515 37.565 170.975 36.245 170.975 33.825ZM130.44 89.75C130.44 78.585 122.245 69.51 109.375 69.51C95.955 69.51 85.34 79.96 85.34 91.895C85.34 100.97 90.235 106.58 95.13 106.58C100.245 106.58 104.59 100.805 107.945 89.475C109.485 84.36 110.53 78.75 111.245 73.635C120.595 74.405 125.93 81.28 125.93 89.585C125.93 99.1 119 104.325 111.96 105.92C110.695 106.195 108.99 106.47 107.23 106.635L109.815 110.705C122.85 109 130.44 101.3 130.44 89.75ZM89.63 91.51C89.63 84.03 96.12 75.01 106.68 73.69C106.075 78.75 104.975 83.975 103.6 88.54C100.795 97.835 97.88 101.52 95.295 101.52C92.82 101.52 89.63 98.44 89.63 91.51ZM14.115 129.12C13.07 131.1 11.64 133.08 10.045 135.005C8.615 133.08 6.91 131.155 4.765 129.285L1.905 131.485C4.27 133.575 6.085 135.72 7.515 137.92C5.205 140.34 2.675 142.54 0.0900001 144.355C0.97 145.125 2.18 146.28 2.73 147.16C5.095 145.51 7.295 143.585 9.385 141.495C10.375 143.75 10.925 146.115 11.31 148.48C8.835 153.54 4.325 158.875 0.255 161.625C1.245 162.34 2.4 163.715 3.005 164.705C6.03 162.23 9.275 158.49 11.86 154.585C11.915 155.52 11.915 156.455 11.915 157.39C11.915 164.375 11.42 170.865 10.1 172.57C9.66 173.175 9.165 173.45 8.34 173.56C7.185 173.67 5.15 173.67 2.62 173.505C3.335 174.66 3.775 176.145 3.775 177.41C5.975 177.575 8.175 177.575 9.99 177.19C11.31 176.97 12.3 176.365 13.07 175.43C15.215 172.46 15.82 165.255 15.82 157.445C15.82 150.845 15.27 144.465 12.19 138.525C14.115 136.27 15.875 133.905 17.25 131.54L14.115 129.12ZM31.715 152.825V160.36H23.3V152.825H31.715ZM43.925 160.36H35.455V152.825H43.925V160.36ZM35.455 171.69V163.935H43.925V171.69H35.455ZM23.3 163.935H31.715V171.69H23.3V163.935ZM19.56 178.18H23.3V175.32H43.925V177.905H47.83V149.14H19.56V178.18ZM42.44 135.83V128.02H38.48V135.83H28.855V128.02H24.895V135.83H17.14V139.57H24.895V146.72H28.855V139.57H38.48V146.72H42.44V139.57H49.865V135.83H42.44ZM80.94 130.715H75.77C75.99 132.035 76.155 134.07 76.155 135.28C76.155 137.26 76.045 139.13 75.935 140.89H66.255C64.165 140.89 61.91 140.78 59.985 140.56V145.235C61.91 145.015 64.165 145.015 66.31 145.015H75.55C74.065 156.345 70.105 163.22 64.66 168.17C63.01 169.765 60.755 171.305 58.995 172.24L63.01 175.485C72.195 169.16 77.915 160.8 79.895 145.015H95.295C95.295 150.9 94.58 164.43 92.49 168.61C91.885 169.985 90.895 170.425 89.3 170.425C86.99 170.425 84.075 170.205 81.105 169.82L81.655 174.385C84.515 174.55 87.705 174.77 90.51 174.77C93.535 174.77 95.295 173.725 96.395 171.415C98.87 166.135 99.53 150.13 99.75 144.85C99.75 144.135 99.86 143.09 100.025 142.155L96.945 140.615C96.01 140.78 94.91 140.89 93.425 140.89H80.335C80.445 139.075 80.555 137.205 80.61 135.225C80.665 133.905 80.775 131.98 80.94 130.715ZM155.355 137.425L152 135.28C150.955 135.555 149.91 135.555 149.085 135.555H121.475C119.66 135.555 117.515 135.39 115.975 135.225V140.065C117.405 140.01 119.275 139.9 121.475 139.9H149.58C148.81 145.18 146.28 152.825 142.375 157.83C137.755 163.715 131.595 168.39 120.925 171.085L124.665 175.21C134.785 172.02 141.33 166.905 146.335 160.47C150.68 154.805 153.375 145.95 154.53 140.175C154.75 139.13 154.97 138.195 155.355 137.425ZM174.22 145.565V149.965C175.375 149.855 177.135 149.8 178.015 149.8H188.135V170.04H175.485C174.22 170.04 172.79 169.93 171.525 169.765V174.385C172.845 174.275 174.275 174.22 175.485 174.22H205.9C206.78 174.22 208.485 174.275 209.585 174.385V169.765C208.485 169.93 207.22 170.04 205.9 170.04H192.59V149.8H203.315C204.58 149.8 206.01 149.855 207.22 149.965V145.565C206.065 145.675 204.69 145.785 203.315 145.785H178.015C177.135 145.785 175.375 145.73 174.22 145.565Z" fill="#4C2D2E"/>
</svg>
