<svg width="48" height="55" viewBox="0 0 48 55" fill="none" xmlns="http://www.w3.org/2000/svg">
<path d="M37.7143 34.375C35.292 34.375 33.0657 35.2149 31.3082 36.6196L20.3276 29.7388C20.6528 28.264 20.6528 26.7359 20.3276 25.2611L31.3082 18.3803C33.0657 19.7851 35.292 20.625 37.7143 20.625C43.3949 20.625 48 16.0079 48 10.3125C48 4.6171 43.3949 0 37.7143 0C32.0337 0 27.4286 4.6171 27.4286 10.3125C27.4286 11.0814 27.5132 11.8304 27.6724 12.5513L16.6918 19.4321C14.9343 18.0274 12.708 17.1875 10.2857 17.1875C4.60511 17.1875 0 21.8046 0 27.5C0 33.1954 4.60511 37.8125 10.2857 37.8125C12.708 37.8125 14.9343 36.9726 16.6918 35.5679L27.6724 42.4487C27.5101 43.1839 27.4284 43.9346 27.4286 44.6875C27.4286 50.3829 32.0337 55 37.7143 55C43.3949 55 48 50.3829 48 44.6875C48 38.9921 43.3949 34.375 37.7143 34.375Z" fill="#B76E79" fill-opacity="0.85"/>
</svg>
