<svg width="67" height="67" viewBox="0 0 67 67" fill="none" xmlns="http://www.w3.org/2000/svg">
<g clip-path="url(#clip0_8_15)">
<path d="M22.1662 24.1385L20.4339 26.1254C17.789 25.8853 10.7848 25.6205 7.42916 28.9761C7.42916 28.9761 8.86079 35.9166 17.1454 38.8043C17.5502 40.7471 17.683 41.8306 18.9852 43.3285L16.6968 46.4371L18.3763 47.5294L20.4694 44.7009L21.6693 45.5093L20.8035 49.0338L22.7193 49.6353L23.488 46.3493C28.5466 48.192 34.369 45.8769 39.1368 41.1091C43.9046 36.3412 46.2198 30.5189 44.377 25.4603L47.663 24.6916L47.0615 22.7758L43.537 23.6416L42.7287 22.4417L45.5572 20.3486L44.4649 18.669L41.3562 20.9574C39.8583 19.6552 38.7748 19.5225 36.832 19.1177C33.9443 10.8331 27.0038 9.40143 27.0038 9.40143C23.6482 12.7571 23.9131 19.7613 24.1531 22.4062L22.1662 24.1385ZM22.2143 32.5757C22.5851 32.2049 23.0898 31.9983 23.6172 32.0013C24.1446 32.0043 24.6516 32.2167 25.0267 32.5918C25.4018 32.9668 25.6142 33.4738 25.6172 34.0013C25.6202 34.5287 25.4136 35.0333 25.0427 35.4042C24.6719 35.775 24.1673 35.9816 23.6399 35.9786C23.1124 35.9756 22.6054 35.7632 22.2303 35.3881C21.8553 35.0131 21.6429 34.506 21.6399 33.9786C21.6369 33.4512 21.8435 32.9466 22.2143 32.5757V32.5757ZM30.6035 24.1866C30.9743 23.8158 31.4789 23.6091 32.0063 23.6121C32.5338 23.6151 33.0408 23.8275 33.4159 24.2026C33.7909 24.5777 34.0033 25.0847 34.0063 25.6121C34.0094 26.1396 33.8027 26.6442 33.4319 27.015C33.0611 27.3858 32.5564 27.5925 32.029 27.5895C31.5016 27.5865 30.9946 27.3741 30.6195 26.999C30.2444 26.6239 30.032 26.1169 30.029 25.5895C30.026 25.062 30.2326 24.5574 30.6035 24.1866V24.1866ZM29.2533 34.022L32.0497 31.2256L33.0367 34.1701C34.2215 34.7956 35.6691 34.6773 36.6339 33.7125C37.1901 33.1563 37.5001 32.3993 37.4956 31.6082C37.4911 30.817 37.1725 30.0565 36.6099 29.4939L37.309 28.7948C38.0591 29.5449 38.4839 30.559 38.4899 31.6138C38.4959 32.6687 38.0827 33.678 37.341 34.4196C36.2924 35.4683 34.8037 35.7972 33.48 35.4522C33.825 36.776 33.496 38.2646 32.4473 39.3133C31.7057 40.0549 30.6964 40.4682 29.6416 40.4622C28.5867 40.4562 27.5727 40.0314 26.8225 39.2812L27.5216 38.5821C28.0842 39.1447 28.8448 39.4633 29.6359 39.4679C30.427 39.4724 31.184 39.1624 31.7402 38.6062C32.705 37.6414 32.8233 36.1938 32.1978 35.009L29.2533 34.022Z" fill="white"/>
</g>
<defs>
<clipPath id="clip0_8_15">
<rect x="0.052887" y="21.1957" width="50" height="50" transform="rotate(-25 0.052887 21.1957)" fill="white"/>
</clipPath>
</defs>
</svg>
