<svg width="67" height="67" viewBox="0 0 67 67" fill="none" xmlns="http://www.w3.org/2000/svg">
<g clip-path="url(#clip0_8_15)">
<path d="M26.4525 27.4525L24.5713 29.6102C21.6991 29.3495 14.0929 29.0618 10.4488 32.7059C10.4488 32.7059 12.0035 40.243 21.0002 43.3788C21.4398 45.4886 21.5839 46.6652 22.998 48.2919L20.513 51.6677L22.3369 52.8539L24.6099 49.7823L25.9129 50.6601L24.9726 54.4875L27.0531 55.1407L27.8879 51.5723C33.3813 53.5734 39.7041 51.0593 44.8817 45.8817C50.0593 40.7041 52.5734 34.3813 50.5723 28.8879L54.1407 28.0531L53.4875 25.9726L49.6601 26.9129L48.7823 25.6099L51.8539 23.3369L50.6677 21.513L47.2919 23.998C45.6652 22.5839 44.4886 22.4398 42.3788 22.0002C39.243 13.0035 31.7059 11.4488 31.7059 11.4488C28.0618 15.0929 28.3495 22.6991 28.6102 25.5713L26.4525 27.4525ZM26.5047 36.6149C26.9074 36.2122 27.4554 35.9878 28.0282 35.9911C28.601 35.9944 29.1516 36.225 29.5589 36.6323C29.9662 37.0396 30.1968 37.5902 30.2001 38.163C30.2034 38.7357 29.979 39.2838 29.5763 39.6864C29.1736 40.0891 28.6256 40.3135 28.0528 40.3103C27.48 40.307 26.9294 40.0764 26.5221 39.669C26.1148 39.2617 25.8842 38.7111 25.8809 38.1384C25.8776 37.5656 26.102 37.0176 26.5047 36.6149V36.6149ZM35.6149 27.5047C36.0176 27.102 36.5656 26.8776 37.1384 26.8809C37.7111 26.8842 38.2617 27.1148 38.6691 27.5221C39.0764 27.9294 39.307 28.48 39.3103 29.0528C39.3135 29.6256 39.0892 30.1736 38.6865 30.5763C38.2838 30.979 37.7358 31.2034 37.163 31.2001C36.5902 31.1968 36.0396 30.9662 35.6323 30.5589C35.225 30.1515 34.9944 29.601 34.9911 29.0282C34.9878 28.4554 35.2122 27.9074 35.6149 27.5047V27.5047ZM34.1488 38.1855L37.1855 35.1488L38.2573 38.3463C39.5439 39.0255 41.116 38.8971 42.1637 37.8494C42.7677 37.2453 43.1043 36.4233 43.0994 35.5642C43.0945 34.7051 42.7485 33.8792 42.1376 33.2682L42.8968 32.509C43.7114 33.3236 44.1727 34.4248 44.1792 35.5703C44.1857 36.7159 43.7369 37.8119 42.9316 38.6173C41.7928 39.756 40.1762 40.1133 38.7387 39.7386C39.1133 41.1762 38.7561 42.7928 37.6173 43.9315C36.8119 44.7369 35.7159 45.1857 34.5704 45.1792C33.4248 45.1727 32.3236 44.7114 31.509 43.8967L32.2682 43.1376C32.8792 43.7485 33.7051 44.0945 34.5642 44.0994C35.4233 44.1043 36.2454 43.7677 36.8494 43.1637C37.8971 42.116 38.0255 40.5439 37.3463 39.2573L34.1488 38.1855Z" fill="white"/>
</g>
<defs>
<clipPath id="clip0_8_15">
<rect y="21.1309" width="50" height="50" transform="rotate(-25 0 21.1309)" fill="white"/>
</clipPath>
</defs>
</svg>
