<svg width="346" height="336" viewBox="0 0 346 336" fill="none" xmlns="http://www.w3.org/2000/svg">
<g clip-path="url(#clip0_36_36)">
<circle cx="173" cy="243" r="75" fill="#C1BCFF"/>
<path d="M172.988 218.097L165.355 218.614C160.42 212.757 146.589 198 132.815 198C132.815 198 121.509 214.996 132.586 237.677C129.429 242.443 127.478 244.912 127.076 250.596L116 252.261L117.205 257.888L127.306 256.395L128.109 260.472L119.099 265.87L121.796 270.98L130.118 265.87C136.718 279.88 153.418 287 172.988 287C192.558 287 209.259 279.88 215.859 265.87L224.18 270.98L226.877 265.87L217.867 260.472L218.671 256.395L228.771 257.888L229.976 252.261L218.9 250.596C218.498 244.912 216.547 242.443 213.391 237.677C224.467 214.996 213.161 198 213.161 198C199.388 198 185.557 212.757 180.621 218.614L172.988 218.097ZM155.771 235.323C157.293 235.323 158.753 235.928 159.829 237.004C160.906 238.081 161.51 239.542 161.51 241.065C161.51 242.587 160.906 244.048 159.829 245.125C158.753 246.201 157.293 246.806 155.771 246.806C154.249 246.806 152.789 246.201 151.713 245.125C150.637 244.048 150.032 242.587 150.032 241.065C150.032 239.542 150.637 238.081 151.713 237.004C152.789 235.928 154.249 235.323 155.771 235.323V235.323ZM190.205 235.323C191.727 235.323 193.187 235.928 194.263 237.004C195.34 238.081 195.944 239.542 195.944 241.065C195.944 242.587 195.34 244.048 194.263 245.125C193.187 246.201 191.727 246.806 190.205 246.806C188.683 246.806 187.223 246.201 186.147 245.125C185.071 244.048 184.466 242.587 184.466 241.065C184.466 239.542 185.071 238.081 186.147 237.004C187.223 235.928 188.683 235.323 190.205 235.323V235.323ZM167.249 252.548H178.727L174.71 260.53C175.858 264.205 179.072 266.903 183.031 266.903C185.315 266.903 187.504 265.996 189.119 264.381C190.733 262.765 191.64 260.575 191.64 258.29H194.509C194.509 261.336 193.3 264.257 191.148 266.411C188.995 268.564 186.076 269.774 183.031 269.774C178.727 269.774 174.997 267.42 172.988 264.032C170.98 267.42 167.249 269.774 162.945 269.774C159.901 269.774 156.981 268.564 154.829 266.411C152.676 264.257 151.467 261.336 151.467 258.29H154.336C154.336 260.575 155.243 262.765 156.858 264.381C158.472 265.996 160.662 266.903 162.945 266.903C166.905 266.903 170.119 264.205 171.267 260.53L167.249 252.548Z" fill="white"/>
<path d="M44.9321 22.2C48.8921 22.2 52.0321 23.36 54.3521 25.68C56.7121 27.96 57.8921 31.3 57.8921 35.7V54H53.6321V36.12C53.6321 32.84 52.8121 30.34 51.1721 28.62C49.5321 26.9 47.1921 26.04 44.1521 26.04C40.7521 26.04 38.0521 27.06 36.0521 29.1C34.0921 31.1 33.1121 33.88 33.1121 37.44V54H28.8521V22.44H32.9321V28.26C34.0921 26.34 35.6921 24.86 37.7321 23.82C39.8121 22.74 42.2121 22.2 44.9321 22.2ZM95.3916 22.44L79.6116 57.78C78.3316 60.74 76.8516 62.84 75.1716 64.08C73.4916 65.32 71.4716 65.94 69.1116 65.94C67.5916 65.94 66.1716 65.7 64.8516 65.22C63.5316 64.74 62.3916 64.02 61.4316 63.06L63.4116 59.88C65.0116 61.48 66.9316 62.28 69.1716 62.28C70.6116 62.28 71.8316 61.88 72.8316 61.08C73.8716 60.28 74.8316 58.92 75.7116 57L77.0916 53.94L62.9916 22.44H67.4316L79.3116 49.26L91.1916 22.44H95.3916ZM111.494 22.2C115.614 22.2 118.774 23.24 120.974 25.32C123.174 27.36 124.274 30.4 124.274 34.44V54H120.194V49.08C119.234 50.72 117.814 52 115.934 52.92C114.094 53.84 111.894 54.3 109.334 54.3C105.814 54.3 103.014 53.46 100.934 51.78C98.8537 50.1 97.8137 47.88 97.8137 45.12C97.8137 42.44 98.7737 40.28 100.694 38.64C102.654 37 105.754 36.18 109.994 36.18H120.014V34.26C120.014 31.54 119.254 29.48 117.734 28.08C116.214 26.64 113.994 25.92 111.074 25.92C109.074 25.92 107.154 26.26 105.314 26.94C103.474 27.58 101.894 28.48 100.574 29.64L98.6537 26.46C100.254 25.1 102.174 24.06 104.414 23.34C106.654 22.58 109.014 22.2 111.494 22.2ZM109.994 50.94C112.394 50.94 114.454 50.4 116.174 49.32C117.894 48.2 119.174 46.6 120.014 44.52V39.36H110.114C104.714 39.36 102.014 41.24 102.014 45C102.014 46.84 102.714 48.3 104.114 49.38C105.514 50.42 107.474 50.94 109.994 50.94ZM161.778 22.44L145.998 57.78C144.718 60.74 143.238 62.84 141.558 64.08C139.878 65.32 137.858 65.94 135.498 65.94C133.978 65.94 132.558 65.7 131.238 65.22C129.918 64.74 128.778 64.02 127.818 63.06L129.798 59.88C131.398 61.48 133.318 62.28 135.558 62.28C136.998 62.28 138.218 61.88 139.218 61.08C140.258 60.28 141.218 58.92 142.098 57L143.478 53.94L129.378 22.44H133.818L145.698 49.26L157.578 22.44H161.778ZM196.218 22.44V54H192.138V48.24C191.018 50.16 189.478 51.66 187.518 52.74C185.558 53.78 183.318 54.3 180.798 54.3C176.678 54.3 173.418 53.16 171.018 50.88C168.658 48.56 167.478 45.18 167.478 40.74V22.44H171.738V40.32C171.738 43.64 172.558 46.16 174.198 47.88C175.838 49.6 178.178 50.46 181.218 50.46C184.538 50.46 187.158 49.46 189.078 47.46C190.998 45.42 191.958 42.6 191.958 39V22.44H196.218ZM247.509 22.2C251.469 22.2 254.569 23.34 256.809 25.62C259.089 27.9 260.229 31.26 260.229 35.7V54H255.969V36.12C255.969 32.84 255.169 30.34 253.569 28.62C252.009 26.9 249.789 26.04 246.909 26.04C243.629 26.04 241.049 27.06 239.169 29.1C237.289 31.1 236.349 33.88 236.349 37.44V54H232.089V36.12C232.089 32.84 231.289 30.34 229.689 28.62C228.129 26.9 225.889 26.04 222.969 26.04C219.729 26.04 217.149 27.06 215.229 29.1C213.349 31.1 212.409 33.88 212.409 37.44V54H208.149V22.44H212.229V28.2C213.349 26.28 214.909 24.8 216.909 23.76C218.909 22.72 221.209 22.2 223.809 22.2C226.449 22.2 228.729 22.76 230.649 23.88C232.609 25 234.069 26.66 235.029 28.86C236.189 26.78 237.849 25.16 240.009 24C242.209 22.8 244.709 22.2 247.509 22.2ZM271.782 22.44H276.042V54H271.782V22.44ZM273.942 15.54C273.062 15.54 272.322 15.24 271.722 14.64C271.122 14.04 270.822 13.32 270.822 12.48C270.822 11.68 271.122 10.98 271.722 10.38C272.322 9.78 273.062 9.48 273.942 9.48C274.822 9.48 275.562 9.78 276.162 10.38C276.762 10.94 277.062 11.62 277.062 12.42C277.062 13.3 276.762 14.04 276.162 14.64C275.562 15.24 274.822 15.54 273.942 15.54ZM288.375 9.18C289.295 9.18 290.055 9.5 290.655 10.14C291.255 10.74 291.555 11.5 291.555 12.42C291.555 12.9 291.475 13.42 291.315 13.98C291.195 14.5 291.015 15.12 290.775 15.84L288.195 24.12H285.315L287.415 15.48C286.735 15.28 286.195 14.92 285.795 14.4C285.395 13.84 285.195 13.18 285.195 12.42C285.195 11.46 285.495 10.68 286.095 10.08C286.695 9.48 287.455 9.18 288.375 9.18ZM308.132 54.3C305.572 54.3 303.112 53.94 300.752 53.22C298.432 52.46 296.612 51.52 295.292 50.4L297.212 47.04C298.532 48.08 300.192 48.94 302.192 49.62C304.192 50.26 306.272 50.58 308.432 50.58C311.312 50.58 313.432 50.14 314.792 49.26C316.192 48.34 316.892 47.06 316.892 45.42C316.892 44.26 316.512 43.36 315.752 42.72C314.992 42.04 314.032 41.54 312.872 41.22C311.712 40.86 310.172 40.52 308.252 40.2C305.692 39.72 303.632 39.24 302.072 38.76C300.512 38.24 299.172 37.38 298.052 36.18C296.972 34.98 296.432 33.32 296.432 31.2C296.432 28.56 297.532 26.4 299.732 24.72C301.932 23.04 304.992 22.2 308.912 22.2C310.952 22.2 312.992 22.48 315.032 23.04C317.072 23.56 318.752 24.26 320.072 25.14L318.212 28.56C315.612 26.76 312.512 25.86 308.912 25.86C306.192 25.86 304.132 26.34 302.732 27.3C301.372 28.26 300.692 29.52 300.692 31.08C300.692 32.28 301.072 33.24 301.832 33.96C302.632 34.68 303.612 35.22 304.772 35.58C305.932 35.9 307.532 36.24 309.572 36.6C312.092 37.08 314.112 37.56 315.632 38.04C317.152 38.52 318.452 39.34 319.532 40.5C320.612 41.66 321.152 43.26 321.152 45.3C321.152 48.06 319.992 50.26 317.672 51.9C315.392 53.5 312.212 54.3 308.132 54.3ZM39.5298 97.76C43.8391 97.76 47.2524 99.0187 49.7698 101.536C52.3298 104.011 53.6098 107.659 53.6098 112.48V132H47.4658V113.184C47.4658 109.899 46.6764 107.424 45.0978 105.76C43.5191 104.096 41.2578 103.264 38.3138 103.264C34.9858 103.264 32.3618 104.245 30.4418 106.208C28.5218 108.128 27.5618 110.901 27.5618 114.528V132H21.4178V98.08H27.3058V103.2C28.5431 101.451 30.2071 100.107 32.2978 99.168C34.4311 98.2293 36.8418 97.76 39.5298 97.76ZM95.8238 115.232C95.8238 115.701 95.7811 116.32 95.6958 117.088H68.1758C68.5598 120.075 69.8611 122.485 72.0798 124.32C74.3411 126.112 77.1358 127.008 80.4638 127.008C84.5171 127.008 87.7811 125.643 90.2558 122.912L93.6478 126.88C92.1118 128.672 90.1918 130.037 87.8878 130.976C85.6264 131.915 83.0878 132.384 80.2718 132.384C76.6878 132.384 73.5091 131.659 70.7358 130.208C67.9624 128.715 65.8078 126.645 64.2718 124C62.7784 121.355 62.0318 118.368 62.0318 115.04C62.0318 111.755 62.7571 108.789 64.2078 106.144C65.7011 103.499 67.7278 101.451 70.2878 100C72.8904 98.5067 75.8131 97.76 79.0558 97.76C82.2984 97.76 85.1784 98.5067 87.6958 100C90.2558 101.451 92.2398 103.499 93.6478 106.144C95.0984 108.789 95.8238 111.819 95.8238 115.232ZM79.0558 102.944C76.1118 102.944 73.6371 103.84 71.6318 105.632C69.6691 107.424 68.5171 109.771 68.1758 112.672H89.9358C89.5944 109.813 88.4211 107.488 86.4158 105.696C84.4531 103.861 81.9998 102.944 79.0558 102.944ZM117.539 116.192L110.499 122.72V132H104.355V84.512H110.499V114.976L128.995 98.08H136.419L122.147 112.096L137.827 132H130.275L117.539 116.192ZM156.883 132.384C153.513 132.384 150.483 131.637 147.795 130.144C145.107 128.651 142.995 126.603 141.459 124C139.966 121.355 139.219 118.368 139.219 115.04C139.219 111.712 139.966 108.747 141.459 106.144C142.995 103.499 145.107 101.451 147.795 100C150.483 98.5067 153.513 97.76 156.883 97.76C160.254 97.76 163.262 98.5067 165.907 100C168.595 101.451 170.686 103.499 172.179 106.144C173.715 108.747 174.483 111.712 174.483 115.04C174.483 118.368 173.715 121.355 172.179 124C170.686 126.603 168.595 128.651 165.907 130.144C163.262 131.637 160.254 132.384 156.883 132.384ZM156.883 127.008C159.059 127.008 161.001 126.517 162.707 125.536C164.457 124.512 165.822 123.104 166.803 121.312C167.785 119.477 168.275 117.387 168.275 115.04C168.275 112.693 167.785 110.624 166.803 108.832C165.822 106.997 164.457 105.589 162.707 104.608C161.001 103.627 159.059 103.136 156.883 103.136C154.707 103.136 152.745 103.627 150.995 104.608C149.289 105.589 147.923 106.997 146.899 108.832C145.918 110.624 145.427 112.693 145.427 115.04C145.427 117.387 145.918 119.477 146.899 121.312C147.923 123.104 149.289 124.512 150.995 125.536C152.745 126.517 154.707 127.008 156.883 127.008ZM214.952 132.384C211.496 132.384 208.402 131.637 205.672 130.144C202.984 128.651 200.872 126.603 199.336 124C197.8 121.355 197.032 118.368 197.032 115.04C197.032 111.712 197.8 108.747 199.336 106.144C200.872 103.499 202.984 101.451 205.672 100C208.402 98.5067 211.496 97.76 214.952 97.76C218.024 97.76 220.754 98.3787 223.144 99.616C225.576 100.853 227.453 102.645 228.776 104.992L224.104 108C223.037 106.379 221.714 105.163 220.136 104.352C218.557 103.541 216.808 103.136 214.888 103.136C212.669 103.136 210.664 103.627 208.872 104.608C207.122 105.589 205.736 106.997 204.712 108.832C203.73 110.624 203.24 112.693 203.24 115.04C203.24 117.429 203.73 119.541 204.712 121.376C205.736 123.168 207.122 124.555 208.872 125.536C210.664 126.517 212.669 127.008 214.888 127.008C216.808 127.008 218.557 126.603 220.136 125.792C221.714 124.981 223.037 123.765 224.104 122.144L228.776 125.088C227.453 127.435 225.576 129.248 223.144 130.528C220.754 131.765 218.024 132.384 214.952 132.384ZM249.082 97.76C253.776 97.76 257.36 98.912 259.834 101.216C262.352 103.52 263.61 106.955 263.61 111.52V132H257.786V127.52C256.762 129.099 255.29 130.315 253.37 131.168C251.493 131.979 249.253 132.384 246.65 132.384C242.853 132.384 239.802 131.467 237.498 129.632C235.237 127.797 234.106 125.387 234.106 122.4C234.106 119.413 235.194 117.024 237.37 115.232C239.546 113.397 243.002 112.48 247.738 112.48H257.466V111.264C257.466 108.619 256.698 106.592 255.162 105.184C253.626 103.776 251.365 103.072 248.378 103.072C246.373 103.072 244.41 103.413 242.49 104.096C240.57 104.736 238.949 105.611 237.626 106.72L235.066 102.112C236.816 100.704 238.906 99.6373 241.338 98.912C243.77 98.144 246.352 97.76 249.082 97.76ZM247.674 127.648C250.021 127.648 252.048 127.136 253.754 126.112C255.461 125.045 256.698 123.552 257.466 121.632V116.896H247.994C242.789 116.896 240.186 118.645 240.186 122.144C240.186 123.851 240.848 125.195 242.17 126.176C243.493 127.157 245.328 127.648 247.674 127.648ZM287.396 89.184C283.727 89.184 281.892 91.168 281.892 95.136V98.08H291.748V103.136H282.02V132H275.876V103.136H270.116V98.08H275.876V95.072C275.876 91.7013 276.858 89.0347 278.82 87.072C280.783 85.1093 283.535 84.128 287.076 84.128C288.442 84.128 289.722 84.2987 290.916 84.64C292.111 84.9813 293.135 85.472 293.988 86.112L292.132 90.784C290.724 89.7173 289.146 89.184 287.396 89.184ZM327.699 115.232C327.699 115.701 327.656 116.32 327.571 117.088H300.051C300.435 120.075 301.736 122.485 303.955 124.32C306.216 126.112 309.011 127.008 312.339 127.008C316.392 127.008 319.656 125.643 322.131 122.912L325.523 126.88C323.987 128.672 322.067 130.037 319.763 130.976C317.501 131.915 314.963 132.384 312.147 132.384C308.563 132.384 305.384 131.659 302.611 130.208C299.837 128.715 297.683 126.645 296.147 124C294.653 121.355 293.907 118.368 293.907 115.04C293.907 111.755 294.632 108.789 296.083 106.144C297.576 103.499 299.603 101.451 302.163 100C304.765 98.5067 307.688 97.76 310.931 97.76C314.173 97.76 317.053 98.5067 319.571 100C322.131 101.451 324.115 103.499 325.523 106.144C326.973 108.789 327.699 111.819 327.699 115.232ZM310.931 102.944C307.987 102.944 305.512 103.84 303.507 105.632C301.544 107.424 300.392 109.771 300.051 112.672H321.811C321.469 109.813 320.296 107.488 318.291 105.696C316.328 103.861 313.875 102.944 310.931 102.944ZM314.771 84.832H322.579L311.827 93.152H306.067L314.771 84.832Z" fill="#4C2D2E"/>
</g>
<defs>
<clipPath id="clip0_36_36">
<rect width="346" height="336" fill="white"/>
</clipPath>
</defs>
</svg>
