<svg width="516" height="206" viewBox="0 0 516 206" fill="none" xmlns="http://www.w3.org/2000/svg">
<path d="M33.02 53.2C36.98 53.2 40.12 54.36 42.44 56.68C44.8 58.96 45.98 62.3 45.98 66.7V85H41.72V67.12C41.72 63.84 40.9 61.34 39.26 59.62C37.62 57.9 35.28 57.04 32.24 57.04C28.84 57.04 26.14 58.06 24.14 60.1C22.18 62.1 21.2 64.88 21.2 68.44V85H16.94V53.44H21.02V59.26C22.18 57.34 23.78 55.86 25.82 54.82C27.9 53.74 30.3 53.2 33.02 53.2ZM83.4795 53.44L67.6995 88.78C66.4195 91.74 64.9395 93.84 63.2595 95.08C61.5795 96.32 59.5595 96.94 57.1995 96.94C55.6795 96.94 54.2595 96.7 52.9395 96.22C51.6195 95.74 50.4795 95.02 49.5195 94.06L51.4995 90.88C53.0995 92.48 55.0195 93.28 57.2595 93.28C58.6995 93.28 59.9195 92.88 60.9195 92.08C61.9595 91.28 62.9195 89.92 63.7995 88L65.1795 84.94L51.0795 53.44H55.5195L67.3995 80.26L79.2795 53.44H83.4795ZM99.5816 53.2C103.702 53.2 106.862 54.24 109.062 56.32C111.262 58.36 112.362 61.4 112.362 65.44V85H108.282V80.08C107.322 81.72 105.902 83 104.022 83.92C102.182 84.84 99.9816 85.3 97.4216 85.3C93.9016 85.3 91.1016 84.46 89.0216 82.78C86.9416 81.1 85.9016 78.88 85.9016 76.12C85.9016 73.44 86.8616 71.28 88.7816 69.64C90.7416 68 93.8416 67.18 98.0816 67.18H108.102V65.26C108.102 62.54 107.342 60.48 105.822 59.08C104.302 57.64 102.082 56.92 99.1616 56.92C97.1616 56.92 95.2416 57.26 93.4016 57.94C91.5616 58.58 89.9816 59.48 88.6616 60.64L86.7416 57.46C88.3416 56.1 90.2616 55.06 92.5016 54.34C94.7416 53.58 97.1016 53.2 99.5816 53.2ZM98.0816 81.94C100.482 81.94 102.542 81.4 104.262 80.32C105.982 79.2 107.262 77.6 108.102 75.52V70.36H98.2016C92.8016 70.36 90.1016 72.24 90.1016 76C90.1016 77.84 90.8016 79.3 92.2016 80.38C93.6016 81.42 95.5616 81.94 98.0816 81.94ZM149.866 53.44L134.086 88.78C132.806 91.74 131.326 93.84 129.646 95.08C127.966 96.32 125.946 96.94 123.586 96.94C122.066 96.94 120.646 96.7 119.326 96.22C118.006 95.74 116.866 95.02 115.906 94.06L117.886 90.88C119.486 92.48 121.406 93.28 123.646 93.28C125.086 93.28 126.306 92.88 127.306 92.08C128.346 91.28 129.306 89.92 130.186 88L131.566 84.94L117.466 53.44H121.906L133.786 80.26L145.666 53.44H149.866ZM184.306 53.44V85H180.226V79.24C179.106 81.16 177.566 82.66 175.606 83.74C173.646 84.78 171.406 85.3 168.886 85.3C164.766 85.3 161.506 84.16 159.106 81.88C156.746 79.56 155.566 76.18 155.566 71.74V53.44H159.826V71.32C159.826 74.64 160.646 77.16 162.286 78.88C163.926 80.6 166.266 81.46 169.306 81.46C172.626 81.46 175.246 80.46 177.166 78.46C179.086 76.42 180.046 73.6 180.046 70V53.44H184.306ZM235.597 53.2C239.557 53.2 242.657 54.34 244.897 56.62C247.177 58.9 248.317 62.26 248.317 66.7V85H244.057V67.12C244.057 63.84 243.257 61.34 241.657 59.62C240.097 57.9 237.877 57.04 234.997 57.04C231.717 57.04 229.137 58.06 227.257 60.1C225.377 62.1 224.437 64.88 224.437 68.44V85H220.177V67.12C220.177 63.84 219.377 61.34 217.777 59.62C216.217 57.9 213.977 57.04 211.057 57.04C207.817 57.04 205.237 58.06 203.317 60.1C201.437 62.1 200.497 64.88 200.497 68.44V85H196.237V53.44H200.317V59.2C201.437 57.28 202.997 55.8 204.997 54.76C206.997 53.72 209.297 53.2 211.897 53.2C214.537 53.2 216.817 53.76 218.737 54.88C220.697 56 222.157 57.66 223.117 59.86C224.277 57.78 225.937 56.16 228.097 55C230.297 53.8 232.797 53.2 235.597 53.2ZM259.87 53.44H264.13V85H259.87V53.44ZM262.03 46.54C261.15 46.54 260.41 46.24 259.81 45.64C259.21 45.04 258.91 44.32 258.91 43.48C258.91 42.68 259.21 41.98 259.81 41.38C260.41 40.78 261.15 40.48 262.03 40.48C262.91 40.48 263.65 40.78 264.25 41.38C264.85 41.94 265.15 42.62 265.15 43.42C265.15 44.3 264.85 45.04 264.25 45.64C263.65 46.24 262.91 46.54 262.03 46.54ZM276.463 40.18C277.383 40.18 278.143 40.5 278.743 41.14C279.343 41.74 279.643 42.5 279.643 43.42C279.643 43.9 279.563 44.42 279.403 44.98C279.283 45.5 279.103 46.12 278.863 46.84L276.283 55.12H273.403L275.503 46.48C274.823 46.28 274.283 45.92 273.883 45.4C273.483 44.84 273.283 44.18 273.283 43.42C273.283 42.46 273.583 41.68 274.183 41.08C274.783 40.48 275.543 40.18 276.463 40.18ZM296.22 85.3C293.66 85.3 291.2 84.94 288.84 84.22C286.52 83.46 284.7 82.52 283.38 81.4L285.3 78.04C286.62 79.08 288.28 79.94 290.28 80.62C292.28 81.26 294.36 81.58 296.52 81.58C299.4 81.58 301.52 81.14 302.88 80.26C304.28 79.34 304.98 78.06 304.98 76.42C304.98 75.26 304.6 74.36 303.84 73.72C303.08 73.04 302.12 72.54 300.96 72.22C299.8 71.86 298.26 71.52 296.34 71.2C293.78 70.72 291.72 70.24 290.16 69.76C288.6 69.24 287.26 68.38 286.14 67.18C285.06 65.98 284.52 64.32 284.52 62.2C284.52 59.56 285.62 57.4 287.82 55.72C290.02 54.04 293.08 53.2 297 53.2C299.04 53.2 301.08 53.48 303.12 54.04C305.16 54.56 306.84 55.26 308.16 56.14L306.3 59.56C303.7 57.76 300.6 56.86 297 56.86C294.28 56.86 292.22 57.34 290.82 58.3C289.46 59.26 288.78 60.52 288.78 62.08C288.78 63.28 289.16 64.24 289.92 64.96C290.72 65.68 291.7 66.22 292.86 66.58C294.02 66.9 295.62 67.24 297.66 67.6C300.18 68.08 302.2 68.56 303.72 69.04C305.24 69.52 306.54 70.34 307.62 71.5C308.7 72.66 309.24 74.26 309.24 76.3C309.24 79.06 308.08 81.26 305.76 82.9C303.48 84.5 300.3 85.3 296.22 85.3ZM34.936 128.76C39.2453 128.76 42.6587 130.019 45.176 132.536C47.736 135.011 49.016 138.659 49.016 143.48V163H42.872V144.184C42.872 140.899 42.0827 138.424 40.504 136.76C38.9253 135.096 36.664 134.264 33.72 134.264C30.392 134.264 27.768 135.245 25.848 137.208C23.928 139.128 22.968 141.901 22.968 145.528V163H16.824V129.08H22.712V134.2C23.9493 132.451 25.6133 131.107 27.704 130.168C29.8373 129.229 32.248 128.76 34.936 128.76ZM91.23 146.232C91.23 146.701 91.1873 147.32 91.102 148.088H63.582C63.966 151.075 65.2673 153.485 67.486 155.32C69.7473 157.112 72.542 158.008 75.87 158.008C79.9233 158.008 83.1873 156.643 85.662 153.912L89.054 157.88C87.518 159.672 85.598 161.037 83.294 161.976C81.0327 162.915 78.494 163.384 75.678 163.384C72.094 163.384 68.9153 162.659 66.142 161.208C63.3687 159.715 61.214 157.645 59.678 155C58.1847 152.355 57.438 149.368 57.438 146.04C57.438 142.755 58.1633 139.789 59.614 137.144C61.1073 134.499 63.134 132.451 65.694 131C68.2967 129.507 71.2193 128.76 74.462 128.76C77.7047 128.76 80.5847 129.507 83.102 131C85.662 132.451 87.646 134.499 89.054 137.144C90.5047 139.789 91.23 142.819 91.23 146.232ZM74.462 133.944C71.518 133.944 69.0433 134.84 67.038 136.632C65.0753 138.424 63.9233 140.771 63.582 143.672H85.342C85.0007 140.813 83.8273 138.488 81.822 136.696C79.8593 134.861 77.406 133.944 74.462 133.944ZM112.946 147.192L105.906 153.72V163H99.7615V115.512H105.906V145.976L124.402 129.08H131.826L117.554 143.096L133.234 163H125.682L112.946 147.192ZM152.29 163.384C148.919 163.384 145.89 162.637 143.202 161.144C140.514 159.651 138.402 157.603 136.866 155C135.372 152.355 134.626 149.368 134.626 146.04C134.626 142.712 135.372 139.747 136.866 137.144C138.402 134.499 140.514 132.451 143.202 131C145.89 129.507 148.919 128.76 152.29 128.76C155.66 128.76 158.668 129.507 161.314 131C164.002 132.451 166.092 134.499 167.586 137.144C169.122 139.747 169.89 142.712 169.89 146.04C169.89 149.368 169.122 152.355 167.586 155C166.092 157.603 164.002 159.651 161.314 161.144C158.668 162.637 155.66 163.384 152.29 163.384ZM152.29 158.008C154.466 158.008 156.407 157.517 158.114 156.536C159.863 155.512 161.228 154.104 162.21 152.312C163.191 150.477 163.682 148.387 163.682 146.04C163.682 143.693 163.191 141.624 162.21 139.832C161.228 137.997 159.863 136.589 158.114 135.608C156.407 134.627 154.466 134.136 152.29 134.136C150.114 134.136 148.151 134.627 146.402 135.608C144.695 136.589 143.33 137.997 142.306 139.832C141.324 141.624 140.834 143.693 140.834 146.04C140.834 148.387 141.324 150.477 142.306 152.312C143.33 154.104 144.695 155.512 146.402 156.536C148.151 157.517 150.114 158.008 152.29 158.008ZM210.358 163.384C206.902 163.384 203.809 162.637 201.078 161.144C198.39 159.651 196.278 157.603 194.742 155C193.206 152.355 192.438 149.368 192.438 146.04C192.438 142.712 193.206 139.747 194.742 137.144C196.278 134.499 198.39 132.451 201.078 131C203.809 129.507 206.902 128.76 210.358 128.76C213.43 128.76 216.161 129.379 218.55 130.616C220.982 131.853 222.859 133.645 224.182 135.992L219.51 139C218.443 137.379 217.121 136.163 215.542 135.352C213.963 134.541 212.214 134.136 210.294 134.136C208.075 134.136 206.07 134.627 204.278 135.608C202.529 136.589 201.142 137.997 200.118 139.832C199.137 141.624 198.646 143.693 198.646 146.04C198.646 148.429 199.137 150.541 200.118 152.376C201.142 154.168 202.529 155.555 204.278 156.536C206.07 157.517 208.075 158.008 210.294 158.008C212.214 158.008 213.963 157.603 215.542 156.792C217.121 155.981 218.443 154.765 219.51 153.144L224.182 156.088C222.859 158.435 220.982 160.248 218.55 161.528C216.161 162.765 213.43 163.384 210.358 163.384ZM244.489 128.76C249.182 128.76 252.766 129.912 255.241 132.216C257.758 134.52 259.017 137.955 259.017 142.52V163H253.193V158.52C252.169 160.099 250.697 161.315 248.777 162.168C246.899 162.979 244.659 163.384 242.057 163.384C238.259 163.384 235.209 162.467 232.905 160.632C230.643 158.797 229.513 156.387 229.513 153.4C229.513 150.413 230.601 148.024 232.777 146.232C234.953 144.397 238.409 143.48 243.145 143.48H252.873V142.264C252.873 139.619 252.105 137.592 250.569 136.184C249.033 134.776 246.771 134.072 243.785 134.072C241.779 134.072 239.817 134.413 237.897 135.096C235.977 135.736 234.355 136.611 233.033 137.72L230.473 133.112C232.222 131.704 234.313 130.637 236.745 129.912C239.177 129.144 241.758 128.76 244.489 128.76ZM243.081 158.648C245.427 158.648 247.454 158.136 249.161 157.112C250.867 156.045 252.105 154.552 252.873 152.632V147.896H243.401C238.195 147.896 235.593 149.645 235.593 153.144C235.593 154.851 236.254 156.195 237.577 157.176C238.899 158.157 240.734 158.648 243.081 158.648ZM282.803 120.184C279.133 120.184 277.299 122.168 277.299 126.136V129.08H287.155V134.136H277.427V163H271.283V134.136H265.523V129.08H271.283V126.072C271.283 122.701 272.264 120.035 274.227 118.072C276.189 116.109 278.941 115.128 282.483 115.128C283.848 115.128 285.128 115.299 286.323 115.64C287.517 115.981 288.541 116.472 289.395 117.112L287.539 121.784C286.131 120.717 284.552 120.184 282.803 120.184ZM323.105 146.232C323.105 146.701 323.062 147.32 322.977 148.088H295.457C295.841 151.075 297.142 153.485 299.361 155.32C301.622 157.112 304.417 158.008 307.745 158.008C311.798 158.008 315.062 156.643 317.537 153.912L320.929 157.88C319.393 159.672 317.473 161.037 315.169 161.976C312.908 162.915 310.369 163.384 307.553 163.384C303.969 163.384 300.79 162.659 298.017 161.208C295.244 159.715 293.089 157.645 291.553 155C290.06 152.355 289.313 149.368 289.313 146.04C289.313 142.755 290.038 139.789 291.489 137.144C292.982 134.499 295.009 132.451 297.569 131C300.172 129.507 303.094 128.76 306.337 128.76C309.58 128.76 312.46 129.507 314.977 131C317.537 132.451 319.521 134.499 320.929 137.144C322.38 139.789 323.105 142.819 323.105 146.232ZM306.337 133.944C303.393 133.944 300.918 134.84 298.913 136.632C296.95 138.424 295.798 140.771 295.457 143.672H317.217C316.876 140.813 315.702 138.488 313.697 136.696C311.734 134.861 309.281 133.944 306.337 133.944ZM310.177 115.832H317.985L307.233 124.152H301.473L310.177 115.832Z" fill="white"/>
<circle cx="431" cy="103" r="75" fill="#C1BCFF"/>
<path d="M431 78.0968L423.499 78.6135C418.65 72.7568 405.058 58 391.524 58C391.524 58 380.414 74.9961 391.298 97.6768C388.196 102.443 386.279 104.912 385.884 110.596L375 112.261L376.184 117.888L386.11 116.395L386.899 120.472L378.045 125.87L380.696 130.98L388.873 125.87C395.359 139.88 411.769 147 431 147C450.231 147 466.641 139.88 473.127 125.87L481.304 130.98L483.955 125.87L475.101 120.472L475.89 116.395L485.816 117.888L487 112.261L476.116 110.596C475.721 104.912 473.804 102.443 470.702 97.6768C481.586 74.9961 470.476 58 470.476 58C456.942 58 443.35 72.7568 438.501 78.6135L431 78.0968ZM414.082 95.3226C415.577 95.3226 417.012 95.9275 418.069 97.0044C419.127 98.0812 419.721 99.5417 419.721 101.065C419.721 102.587 419.127 104.048 418.069 105.125C417.012 106.201 415.577 106.806 414.082 106.806C412.586 106.806 411.151 106.201 410.094 105.125C409.036 104.048 408.442 102.587 408.442 101.065C408.442 99.5417 409.036 98.0812 410.094 97.0044C411.151 95.9275 412.586 95.3226 414.082 95.3226ZM447.918 95.3226C449.414 95.3226 450.849 95.9275 451.906 97.0044C452.964 98.0812 453.558 99.5417 453.558 101.065C453.558 102.587 452.964 104.048 451.906 105.125C450.849 106.201 449.414 106.806 447.918 106.806C446.423 106.806 444.988 106.201 443.931 105.125C442.873 104.048 442.279 102.587 442.279 101.065C442.279 99.5417 442.873 98.0812 443.931 97.0044C444.988 95.9275 446.423 95.3226 447.918 95.3226ZM425.361 112.548H436.639L432.692 120.53C433.82 124.205 436.978 126.903 440.869 126.903C443.113 126.903 445.264 125.996 446.851 124.381C448.437 122.765 449.328 120.575 449.328 118.29H452.148C452.148 121.336 450.96 124.257 448.845 126.411C446.729 128.564 443.86 129.774 440.869 129.774C436.639 129.774 432.974 127.42 431 124.032C429.026 127.42 425.361 129.774 421.131 129.774C418.14 129.774 415.271 128.564 413.155 126.411C411.04 124.257 409.852 121.336 409.852 118.29H412.672C412.672 120.575 413.563 122.765 415.149 124.381C416.736 125.996 418.887 126.903 421.131 126.903C425.022 126.903 428.18 124.205 429.308 120.53L425.361 112.548Z" fill="white"/>
</svg>
